<?xml version="1.0" encoding="utf-8"?>
<!-- Generator: Adobe Illustrator 25.1.0, SVG Export Plug-In . SVG Version: 6.00 Build 0)  -->
<svg version="1.0" id="Layer_1" xmlns="http://www.w3.org/2000/svg" xmlns:xlink="http://www.w3.org/1999/xlink" x="0px" y="0px"
	 viewBox="0 0 280 300" enable-background="new 0 0 280 300" xml:space="preserve">
<g>
</g>
<g>
	<path fill-rule="evenodd" clip-rule="evenodd" fill="#EC1C24" d="M138,23.65l4.23-0.04l0.01,99.54l4.53-3.41l0.36-1.51l-0.02-60.07
		l0.08-5.42l4.2,0.06l-0.07,69.28l-8.36,5.92l-0.72,0.84l0.04,23.96c5.47-3.62,10.84-7.27,16.24-10.96l0.05-74.48l0.15-5.2
		l16.2,10.86l0.03,17.05l-5.57-0.04l-0.08-15.32l-7.35-4.17l-0.02,51.57l0.06,23.39l-19.86,12.55l-4.25-0.04l-19.21-12.84
		l-0.05-74.66l-5.36,2.86l-2.61,1.56l-0.02,42.86l-5.63-3.32l0.07-40.78l17.05-11.22l0.11,79.49l15.78,10.8l-0.01-23.62l-1.36-1.52
		l-7.75-5.65l0.02-69.23l4.22,0.01l-0.01,66.65l4.86,3.72l0.04-51.52C138.01,55.62,138.06,39.63,138,23.65L138,23.65z M169.34,97.25
		l5.62-0.02l0.02,16.15l-5.64,2.68C169.34,109.8,169.36,103.52,169.34,97.25L169.34,97.25z"/>
	
		<path fill-rule="evenodd" clip-rule="evenodd" fill="#2E3191" stroke="#231F20" stroke-width="0.216" stroke-miterlimit="2.6131" d="
		M100.14,121.26c3.7-4.08,10.12,3.04,12.72,5.76l0.1,29.62l25.01,12.81l0.01-8.45l3.99,0l0.06,8.46l25.16-13.01
		c-0.05-9.69,0-19.38-0.03-29.07c-0.06-0.25,8.35-11.83,12.56-5.62c1.76,2.63,0.54,5.95,1.04,8.86c0.44,0.23,0.94-0.15,1.4-0.15
		c2.58-0.43,5.78-0.04,7.33,2.34c1.26,1.63,1.76,3.66,2.1,5.66c2.81-0.17,6.17-0.03,8.09,2.37c2.01,2.69,1.71,6.24,2.27,9.37
		c3.24-0.91,7.2-0.94,9.77,1.55c1.22,1.27,2.4,2.8,2.66,4.59l-0.02,52.92l-74.5,27.39l-74.17-27.27l-0.08-53.02
		c-0.04-2.41,1.5-4.66,3.59-5.77c2.69-1.64,6.11-1.89,8.98-0.54c-0.15-3.56,0.63-7.49,3.36-9.99c2.04-1.93,5.05-2.16,7.69-1.68
		c0.34-1.24-0.12-3.41,2.66-6.71c1.85-1.91,4.81-1.91,7.1-0.89C98.1,127.67,97.93,123.86,100.14,121.26L100.14,121.26z
		 M103.66,125.98l0.04,43.13l34.26,15.16l-0.04-10.75l-29.83-15.21c-0.01-10.53,0.01-21.05-0.01-31.58
		C107.55,124.14,103.43,122.32,103.66,125.98L103.66,125.98z M171.41,126.67l0.47,31.48l-29.83,15.31l-0.04,10.79l34.07-15.29
		c-0.05-14.56,0-29.11-0.02-43.67c0.04-0.62-0.24-1.33-0.84-1.57C174.05,123.7,171.3,125.64,171.41,126.67L171.41,126.67z
		 M94.47,136.25l0,44.61l43.49,17.91l-0.05-9.62L99,171.78c-0.09-12.91-0.06-25.83-0.02-38.75
		C96.17,131.24,94.34,133.3,94.47,136.25L94.47,136.25z M181.25,132.92c-0.32,1.43-0.1,2.9-0.16,4.35l-0.01,34.5l-39.09,17.4
		l-0.08,9.58l44.21-17.93c-0.05-15.1,0.03-30.19-0.04-45.29C185.59,133.4,183.08,133.07,181.25,132.92L181.25,132.92z M84.25,144.72
		l-0.01,48.62l53.71,20.61l-0.01-9.42l-48.81-19.96c-0.06-14.38-0.03-28.77-0.01-43.16C86.29,140.5,84.31,141.42,84.25,144.72
		L84.25,144.72z M191.24,141.51l-0.03,43.21l-49.2,19.8l0,9.44l54-20.57c0.04-16.23,0.02-32.47,0.01-48.7
		C196.01,142.4,193.37,140.13,191.24,141.51L191.24,141.51z M201.99,152.66v44.05l-59.89,23.24l-0.06,10.57l66.48-24.39
		c0.02-16.12-0.01-32.24,0.02-48.36C209.09,154.35,205.18,151.34,201.99,152.66L201.99,152.66z M73.16,153.85
		c-1.09,0.99-1.47,2.51-1.43,3.94l0,48.4l66.22,24.35l-0.01-10.48L78.3,196.73c-0.04-14.67,0.05-29.34-0.04-44.02
		C76.52,152.55,74.49,152.54,73.16,153.85L73.16,153.85z"/>
	<path fill-rule="evenodd" clip-rule="evenodd" fill="#EC1C24" d="M43.18,239.53c0-1.24,0-2.48,0-3.72c0-1.24,0-2.48,0-3.72
		c0-1.24,0-2.48,0-3.72c0-1.24,0-2.48,0-3.72c0.95,0.09,1.94,0.19,2.89,0.28c1.12,0.11,1.84,0.26,2.17,0.47
		c0.52,0.32,0.96,0.89,1.3,1.71c0.34,0.83,0.52,1.84,0.52,3.04c0,0.93-0.09,1.69-0.29,2.29c-0.2,0.59-0.46,1.03-0.77,1.34
		c-0.3,0.29-0.6,0.47-0.93,0.53c-0.43,0.07-1.07,0.07-1.9-0.02c-0.41-0.05-0.79-0.09-1.18-0.14c0,0.94,0,1.88,0,2.82
		c0,0.94,0,1.88,0,2.82C44.36,239.69,43.76,239.61,43.18,239.53L43.18,239.53z M44.98,227.35c0,0.71,0,1.42,0,2.13
		c0,0.71,0,1.42,0,2.13c0.33,0.04,0.66,0.08,0.99,0.12c0.72,0.08,1.2,0.05,1.43-0.08c0.25-0.13,0.44-0.35,0.58-0.67
		c0.13-0.31,0.19-0.69,0.19-1.14c0-0.55-0.09-1.02-0.29-1.41c-0.19-0.38-0.41-0.62-0.72-0.75c-0.21-0.09-0.66-0.16-1.32-0.23
		C45.58,227.41,45.27,227.38,44.98,227.35L44.98,227.35z M51.56,225.78c0.6,0.11,1.2,0.22,1.82,0.34c0,1.37,0,2.75,0,4.12
		c0,1.37,0,2.75,0,4.12c0,1.31,0.03,2.16,0.08,2.56c0.08,0.65,0.26,1.2,0.54,1.64c0.3,0.46,0.72,0.75,1.2,0.87
		c0.5,0.13,0.89,0.04,1.14-0.24c0.27-0.3,0.44-0.68,0.48-1.2c0.05-0.51,0.08-1.36,0.08-2.57c0-1.41,0-2.82,0-4.22
		c0-1.41,0-2.81,0-4.23c0.6,0.14,1.2,0.29,1.82,0.44c0,1.34,0,2.68,0,4.02c0,1.34,0,2.68,0,4.02c0,1.84-0.03,3.13-0.14,3.86
		c-0.11,0.73-0.3,1.32-0.56,1.78c-0.26,0.45-0.6,0.78-1.05,0.98c-0.44,0.2-1.03,0.2-1.74,0.01c-0.85-0.22-1.49-0.55-1.94-1
		c-0.43-0.44-0.8-0.93-1.07-1.54c-0.26-0.58-0.42-1.17-0.5-1.78c-0.11-0.89-0.17-2.19-0.17-3.88c0-1.35,0-2.7,0-4.04
		S51.56,227.12,51.56,225.78L51.56,225.78z M60.66,243.23c0-1.27,0-2.55,0-3.82c0-1.27,0-2.55,0-3.83c0-1.27,0-2.55,0-3.82
		c0-1.28,0-2.55,0-3.83c0.58,0.16,1.16,0.32,1.76,0.49c0.31,0.95,0.62,1.89,0.93,2.83c0.31,0.94,0.62,1.89,0.93,2.83
		c0.31,0.94,0.64,1.89,0.93,2.84c0.29,0.95,0.62,1.91,0.93,2.86c0-0.85,0-1.71,0-2.57c0-0.85,0-1.71,0-2.57c0-0.85,0-1.71,0-2.57
		c0-0.85,0-1.71,0-2.57c0.56,0.17,1.12,0.35,1.68,0.52c0,1.28,0,2.56,0,3.84c0,1.28,0,2.56,0,3.83c0,1.28,0,2.56,0,3.84
		c0,1.28,0,2.56,0,3.84c-0.62-0.2-1.22-0.39-1.82-0.57c-0.31-0.94-0.64-1.88-0.93-2.81c-0.29-0.92-0.61-1.86-0.91-2.78
		c-0.3-0.93-0.62-1.86-0.91-2.78c-0.29-0.92-0.62-1.85-0.91-2.78c0,0.84,0,1.68,0,2.52c0,0.84,0,1.68,0,2.52s0,1.68,0,2.52
		c0,0.84,0,1.68,0,2.52C61.79,243.56,61.23,243.4,60.66,243.23L60.66,243.23z M73,231.63c0.6,0.19,1.22,0.39,1.84,0.6
		c0,0.81,0,1.62,0,2.43c0,0.81,0,1.62,0,2.43c0,0.81,0,1.62,0,2.43c0,0.81,0,1.62,0,2.43c0,1.27-0.06,2.24-0.19,2.87
		c-0.18,0.84-0.49,1.45-0.97,1.85c-0.45,0.38-1.06,0.46-1.84,0.21c-0.87-0.28-1.58-0.9-2.05-1.9c-0.47-0.99-0.72-2.32-0.72-3.95
		c0.56,0.06,1.14,0.12,1.72,0.18c0.02,0.88,0.09,1.53,0.21,1.92c0.19,0.61,0.52,0.99,0.89,1.11c0.41,0.13,0.69,0.02,0.85-0.32
		c0.17-0.35,0.25-1.13,0.25-2.38c0-0.83,0-1.65,0-2.48c0-0.83,0-1.66,0-2.48c0-0.83,0-1.66,0-2.48S73,232.46,73,231.63L73,231.63z
		 M84.91,250.93c-0.66-0.22-1.32-0.44-1.98-0.65c-0.27-1.26-0.52-2.5-0.77-3.75c-1.22-0.41-2.42-0.81-3.62-1.22
		c-0.25,1.08-0.5,2.17-0.76,3.25c-0.64-0.21-1.28-0.42-1.92-0.62c0.29-1.19,0.58-2.37,0.87-3.56c0.29-1.19,0.58-2.37,0.87-3.56
		c0.29-1.18,0.58-2.37,0.87-3.55c0.29-1.18,0.58-2.36,0.89-3.54c0.64,0.22,1.28,0.44,1.92,0.65c0.29,1.38,0.6,2.77,0.89,4.14
		c0.29,1.37,0.62,2.76,0.91,4.13c0.29,1.38,0.6,2.76,0.89,4.13C84.27,248.17,84.6,249.55,84.91,250.93L84.91,250.93z M81.56,243.74
		c-0.21-1.02-0.44-2.03-0.64-3.06c-0.19-1-0.41-2.03-0.6-3.05c-0.21,0.88-0.43,1.75-0.62,2.63c-0.19,0.88-0.41,1.76-0.6,2.64
		C79.91,243.18,80.73,243.46,81.56,243.74L81.56,243.74z M85.88,235.93c1.2,0.41,2.4,0.82,3.62,1.24c0.72,0.24,1.26,0.48,1.59,0.69
		c0.37,0.23,0.69,0.56,0.95,0.96c0.28,0.42,0.51,0.92,0.7,1.51c0.18,0.59,0.27,1.22,0.27,1.87c0,0.71-0.12,1.32-0.35,1.85
		c-0.22,0.51-0.52,0.86-0.91,1.03c0.54,0.46,0.97,1.08,1.26,1.82c0.3,0.77,0.45,1.57,0.45,2.46c0,0.69-0.1,1.34-0.29,1.93
		c-0.19,0.59-0.44,1.03-0.77,1.32c-0.32,0.27-0.74,0.39-1.24,0.31c-0.27-0.04-1.03-0.25-2.19-0.63c-1.03-0.34-2.05-0.69-3.08-1.04
		c0-1.28,0-2.56,0-3.83c0-1.27,0-2.55,0-3.83c0-1.27,0-2.55,0-3.83C85.88,238.49,85.88,237.21,85.88,235.93L85.88,235.93z
		 M87.72,239.11c0,1.18,0,2.35,0,3.53c0.39,0.13,0.78,0.26,1.18,0.4c0.72,0.24,1.18,0.38,1.34,0.4c0.31,0.04,0.54-0.07,0.72-0.3
		c0.19-0.25,0.27-0.6,0.27-1.1c0-0.47-0.08-0.88-0.23-1.23c-0.14-0.34-0.37-0.6-0.68-0.76c-0.17-0.09-0.7-0.29-1.55-0.58
		C88.43,239.35,88.06,239.23,87.72,239.11L87.72,239.11z M87.72,245.18c0,0.69,0,1.37,0,2.06c0,0.69,0,1.37,0,2.05
		c0.56,0.19,1.14,0.39,1.68,0.57c0.66,0.22,1.07,0.32,1.24,0.32c0.27,0,0.51-0.11,0.68-0.38c0.17-0.27,0.27-0.67,0.27-1.21
		c0-0.46-0.09-0.87-0.21-1.24c-0.12-0.36-0.33-0.67-0.58-0.9c-0.25-0.23-0.77-0.48-1.61-0.76C88.68,245.51,88.2,245.35,87.72,245.18
		L87.72,245.18z M102.68,251.25c0-0.85,0-1.71,0-2.57c1.3,0.42,2.61,0.86,3.93,1.28c0,1.01,0,2.02,0,3.02c0,1.01,0,2.02,0,3.02
		c-0.39,0.51-0.93,0.88-1.67,1.13c-0.7,0.24-1.45,0.24-2.21,0c-0.93-0.3-1.76-0.9-2.46-1.8c-0.7-0.9-1.23-2.02-1.59-3.39
		c-0.18-0.68-0.33-1.38-0.41-2.08c-0.08-0.7-0.12-1.43-0.12-2.16c0-0.8,0.04-1.53,0.14-2.2c0.1-0.67,0.25-1.29,0.45-1.84
		c0.4-1.1,0.99-1.86,1.74-2.26c0.58-0.31,1.32-0.32,2.15-0.04c1.12,0.38,2.01,1.07,2.63,2.06c0.63,1,1.03,2.22,1.22,3.67
		c-0.62,0-1.22,0-1.82-0.02c-0.14-0.79-0.36-1.44-0.72-2c-0.34-0.53-0.79-0.91-1.32-1.09c-0.77-0.26-1.42-0.05-1.9,0.65
		c-0.47,0.69-0.7,1.89-0.7,3.56c0,0.9,0.06,1.72,0.17,2.43c0.12,0.71,0.3,1.35,0.54,1.87c0.48,1.06,1.11,1.71,1.86,1.96
		c0.39,0.13,0.77,0.12,1.14,0c0.39-0.13,0.72-0.32,0.99-0.6c0-0.64,0-1.28,0-1.92C104.06,251.7,103.36,251.47,102.68,251.25
		L102.68,251.25z M108.3,258.6c0-1.26,0-2.52,0-3.79c0-1.26,0-2.52,0-3.78c0-1.26,0-2.52,0-3.78c0-1.26,0-2.52,0-3.79
		c1.28,0.4,2.55,0.82,3.83,1.21c0.97,0.3,1.67,0.63,2.09,1.03c0.44,0.41,0.81,0.99,1.07,1.76c0.26,0.78,0.39,1.6,0.39,2.49
		c0,1.13-0.2,2-0.6,2.62c-0.39,0.62-0.99,0.91-1.76,0.88c0.39,0.5,0.72,1.02,0.97,1.55c0.25,0.53,0.6,1.45,1.03,2.75
		c0.36,1.09,0.74,2.17,1.1,3.26c-0.74-0.21-1.47-0.43-2.19-0.63c-0.45-1.23-0.86-2.44-1.3-3.67c-0.46-1.29-0.79-2.12-0.97-2.49
		c-0.17-0.34-0.33-0.61-0.54-0.79c-0.18-0.16-0.5-0.32-0.93-0.46c-0.12-0.04-0.25-0.08-0.37-0.12c0,1.05,0,2.1,0,3.16
		c0,1.05,0,2.1,0,3.15C109.5,258.97,108.9,258.79,108.3,258.6L108.3,258.6z M110.12,250.45c0.45,0.14,0.89,0.28,1.36,0.42
		c0.87,0.27,1.41,0.36,1.63,0.3c0.21-0.06,0.4-0.22,0.52-0.48c0.13-0.26,0.17-0.63,0.17-1.08c0-0.51-0.06-0.93-0.23-1.3
		c-0.16-0.35-0.39-0.62-0.7-0.79c-0.14-0.08-0.58-0.22-1.32-0.45c-0.49-0.15-0.97-0.31-1.43-0.45
		C110.12,247.89,110.12,249.16,110.12,250.45L110.12,250.45z M117.01,253.75c0-1.53,0.15-2.78,0.43-3.74
		c0.2-0.71,0.49-1.32,0.83-1.83c0.34-0.52,0.74-0.86,1.16-1.05c0.56-0.24,1.22-0.27,1.96-0.07c1.34,0.36,2.41,1.33,3.2,2.87
		c0.4,0.78,0.7,1.67,0.89,2.65c0.2,1.01,0.31,2.11,0.31,3.33c0,1.21-0.12,2.26-0.31,3.16c-0.19,0.91-0.49,1.65-0.89,2.26
		c-0.78,1.19-1.84,1.62-3.18,1.27c-1.32-0.34-2.39-1.28-3.2-2.86c-0.4-0.78-0.72-1.69-0.91-2.69
		C117.11,256.06,117.01,254.95,117.01,253.75L117.01,253.75z M118.89,254.17c0,1.7,0.25,3.06,0.72,4.06c0.46,1,1.07,1.59,1.8,1.78
		c0.74,0.19,1.33-0.1,1.8-0.84c0.24-0.38,0.41-0.88,0.52-1.5c0.12-0.62,0.17-1.37,0.17-2.24c0-1.72-0.24-3.04-0.7-4.02
		c-0.45-0.96-1.05-1.54-1.8-1.74c-0.76-0.2-1.35,0.07-1.82,0.81C119.13,251.2,118.89,252.44,118.89,254.17L118.89,254.17z
		 M127.2,248.73c0.6,0.13,1.22,0.28,1.84,0.4c0,1.35,0,2.7,0,4.04c0,1.34,0,2.69,0,4.04c0,1.28,0.01,2.12,0.06,2.5
		c0.07,0.63,0.26,1.16,0.54,1.55c0.3,0.43,0.7,0.66,1.2,0.74c0.5,0.08,0.9-0.04,1.16-0.35c0.26-0.31,0.41-0.71,0.46-1.21
		c0.06-0.5,0.08-1.34,0.08-2.52c0-1.37,0-2.75,0-4.12c0-1.37,0-2.75,0-4.12c0.6,0.09,1.22,0.19,1.84,0.22c0,1.31,0,2.61,0,3.92
		c0,1.3,0,2.61,0,3.91c0,1.79-0.06,3.05-0.15,3.78c-0.1,0.73-0.27,1.35-0.54,1.84c-0.27,0.47-0.62,0.82-1.06,1.06
		c-0.45,0.23-1.01,0.3-1.72,0.19c-0.85-0.13-1.52-0.38-1.96-0.79c-0.44-0.41-0.78-0.92-1.05-1.51c-0.26-0.58-0.44-1.17-0.52-1.77
		c-0.13-0.88-0.17-2.16-0.17-3.83c0-1.33,0-2.66,0-3.99C127.2,251.39,127.2,250.06,127.2,248.73L127.2,248.73z M136.3,264.92
		c0-1.24,0-2.48,0-3.72c0-1.24,0-2.48,0-3.72c0-1.24,0-2.48,0-3.72c0-1.24,0-2.48,0-3.72c0.97,0.07,1.94,0.06,2.92,0.02
		c1.1-0.05,1.84-0.02,2.17,0.1c0.52,0.2,0.95,0.66,1.3,1.36c0.35,0.71,0.52,1.64,0.52,2.83c0,0.91-0.09,1.68-0.29,2.34
		c-0.2,0.65-0.46,1.18-0.77,1.56c-0.31,0.37-0.6,0.62-0.95,0.76c-0.41,0.16-1.07,0.27-1.88,0.32c-0.39,0.02-0.79,0.04-1.18,0.06
		c0,0.93,0,1.87,0,2.8c0,0.94,0,1.87,0,2.81C137.52,265,136.9,264.96,136.3,264.92L136.3,264.92z M138.14,252.62
		c0,0.71,0,1.41,0,2.12c0,0.71,0,1.41,0,2.12c0.33-0.02,0.66-0.03,0.99-0.05c0.72-0.03,1.2-0.14,1.43-0.31
		c0.25-0.18,0.42-0.43,0.56-0.77c0.15-0.35,0.21-0.73,0.21-1.17c0-0.54-0.1-0.99-0.29-1.33c-0.19-0.34-0.43-0.55-0.74-0.62
		c-0.21-0.05-0.64-0.06-1.3-0.03C138.72,252.59,138.43,252.61,138.14,252.62L138.14,252.62z M147.61,256.7
		c0-1.52,0.15-2.82,0.43-3.9c0.21-0.8,0.48-1.54,0.83-2.21c0.35-0.67,0.75-1.2,1.16-1.57c0.58-0.51,1.24-0.83,1.96-0.97
		c1.34-0.27,2.39,0.17,3.2,1.34c0.4,0.58,0.7,1.33,0.89,2.23c0.19,0.9,0.31,1.96,0.31,3.17c0,1.21-0.13,2.31-0.31,3.3
		c-0.18,0.98-0.49,1.87-0.89,2.65c-0.78,1.54-1.84,2.48-3.18,2.74c-1.32,0.26-2.39-0.2-3.2-1.41c-0.4-0.6-0.72-1.34-0.91-2.24
		C147.71,258.93,147.61,257.89,147.61,256.7L147.61,256.7z M149.49,256.24c0,1.69,0.24,2.92,0.72,3.7c0.47,0.78,1.08,1.1,1.8,0.95
		c0.72-0.14,1.33-0.7,1.8-1.67c0.24-0.49,0.41-1.07,0.52-1.75c0.12-0.68,0.17-1.45,0.17-2.31c0-1.71-0.24-2.92-0.7-3.66
		c-0.46-0.73-1.05-1.03-1.8-0.88c-0.74,0.15-1.36,0.69-1.82,1.63C149.72,253.2,149.49,254.52,149.49,256.24L149.49,256.24z
		 M157.8,261.87c0-1.24,0-2.48,0-3.72c0-1.24,0-2.48,0-3.72c0-1.24,0-2.48,0-3.72c0-1.24,0-2.48,0-3.72c2.05-0.5,4.12-1.06,6.2-1.62
		c0,0.84,0,1.68,0,2.52c-1.47,0.41-2.92,0.79-4.38,1.19c0,1.18,0,2.36,0,3.53c1.26-0.34,2.52-0.68,3.8-1.03c0,0.84,0,1.68,0,2.52
		c-1.28,0.35-2.54,0.69-3.8,1.03c0,1.05,0,2.11,0,3.16s0,2.1,0,3.16C159,261.58,158.4,261.73,157.8,261.87L157.8,261.87z
		 M174.78,251.58c0.58,0.12,1.16,0.23,1.76,0.34c-0.27,1.72-0.72,3.08-1.36,4.08c-0.62,0.98-1.43,1.64-2.4,1.94
		c-1.2,0.36-2.18-0.02-2.96-1.15c-0.38-0.56-0.7-1.27-0.87-2.14c-0.17-0.87-0.27-1.89-0.27-3.07c0-1.24,0.1-2.37,0.29-3.39
		c0.19-1.02,0.49-1.95,0.87-2.74c0.78-1.61,1.8-2.59,3.06-2.97c1.1-0.33,2-0.07,2.69,0.79c0.41,0.51,0.72,1.33,0.93,2.45
		c-0.6,0.43-1.2,0.85-1.8,1.27c-0.12-0.73-0.33-1.28-0.68-1.62c-0.35-0.34-0.75-0.43-1.24-0.28c-0.66,0.2-1.19,0.73-1.63,1.66
		c-0.42,0.91-0.62,2.26-0.62,4.04c0,0.94,0.04,1.73,0.14,2.37c0.1,0.64,0.28,1.12,0.48,1.46c0.42,0.68,0.93,0.92,1.59,0.73
		c0.49-0.14,0.92-0.54,1.26-1.15C174.37,253.6,174.62,252.72,174.78,251.58L174.78,251.58z M177.72,248.79
		c0-1.52,0.15-2.85,0.43-3.96c0.21-0.83,0.48-1.6,0.83-2.31c0.35-0.71,0.75-1.29,1.16-1.71c0.57-0.58,1.24-0.99,1.96-1.22
		c1.34-0.43,2.41-0.09,3.2,1.02c0.39,0.56,0.7,1.27,0.89,2.16c0.19,0.88,0.31,1.93,0.31,3.14c0,1.21-0.12,2.32-0.31,3.33
		c-0.19,1-0.49,1.91-0.89,2.72c-0.78,1.61-1.84,2.63-3.18,3.06c-1.34,0.43-2.39,0.1-3.2-1.01c-0.4-0.55-0.72-1.26-0.91-2.13
		C177.82,251.01,177.72,249.98,177.72,248.79L177.72,248.79z M179.6,248.1c0,1.69,0.25,2.89,0.72,3.61c0.46,0.72,1.07,0.96,1.8,0.73
		c0.74-0.24,1.33-0.87,1.8-1.88c0.24-0.51,0.41-1.11,0.52-1.79c0.12-0.69,0.17-1.46,0.17-2.33c0-1.71-0.24-2.9-0.7-3.6
		c-0.45-0.69-1.05-0.93-1.8-0.68c-0.76,0.24-1.36,0.87-1.82,1.87C179.83,245.03,179.6,246.39,179.6,248.1L179.6,248.1z
		 M187.97,252.85c0-1.23,0-2.46,0-3.69c0-1.23,0-2.46,0-3.69c0-1.23,0-2.46,0-3.69c0-1.23,0-2.46,0-3.69c0.6-0.2,1.2-0.4,1.82-0.6
		c0,1.02,0,2.05,0,3.07c0,1.02,0,2.04,0,3.06c0,1.02,0,2.04,0,3.07c0,1.02,0,2.04,0,3.06c1.51-0.5,3.02-1,4.53-1.5
		c0,0.84,0,1.68,0,2.52C192.19,251.45,190.08,252.15,187.97,252.85L187.97,252.85z M195.65,250.31c0-1.23,0-2.46,0-3.69
		c0-1.23,0-2.46,0-3.69c0-1.23,0-2.46,0-3.69c0-1.23,0-2.46,0-3.69c0.6-0.2,1.22-0.4,1.84-0.6c0,1.02,0,2.04,0,3.07
		c0,1.02,0,2.04,0,3.06c0,1.02,0,2.04,0,3.06s0,2.04,0,3.06c1.51-0.5,3.02-0.99,4.53-1.49c0,0.84,0,1.68,0,2.52
		C199.89,248.92,197.76,249.63,195.65,250.31L195.65,250.31z M203.32,247.81c0-1.24,0-2.48,0-3.72c0-1.24,0-2.48,0-3.72
		c0-1.24,0-2.48,0-3.72c0-1.24,0-2.48,0-3.72c2.23-0.72,4.45-1.44,6.68-2.12c0,0.84,0,1.68,0,2.52c-1.63,0.49-3.25,1.01-4.86,1.52
		c0,1.1,0,2.21,0,3.31c1.49-0.48,3-0.96,4.51-1.42c0,0.84,0,1.68,0,2.52c-1.51,0.46-3.02,0.94-4.51,1.42c0,0.67,0,1.35,0,2.02
		c0,0.67,0,1.34,0,2.01c1.67-0.53,3.35-1.06,5.03-1.58c0,0.84,0,1.68,0,2.52C207.89,246.34,205.61,247.07,203.32,247.81
		L203.32,247.81z M215.93,238.42c0-0.84,0-1.68,0-2.52c1.3-0.37,2.59-0.74,3.91-1.12c0,0.99,0,1.98,0,2.97c0,0.99,0,1.98,0,2.97
		c-0.39,0.72-0.93,1.41-1.67,2.1c-0.72,0.67-1.45,1.11-2.19,1.33c-0.95,0.27-1.76,0.19-2.48-0.25c-0.7-0.43-1.22-1.21-1.57-2.32
		c-0.17-0.56-0.33-1.15-0.41-1.78c-0.08-0.64-0.14-1.31-0.14-2.03c0-0.78,0.06-1.52,0.15-2.24c0.1-0.72,0.25-1.41,0.45-2.08
		c0.39-1.33,0.97-2.44,1.72-3.32c0.58-0.68,1.3-1.13,2.17-1.38c1.12-0.32,1.99-0.18,2.61,0.42c0.63,0.6,1.05,1.55,1.22,2.87
		c-0.62,0.36-1.22,0.72-1.82,1.08c-0.12-0.7-0.35-1.2-0.72-1.53c-0.35-0.32-0.77-0.41-1.3-0.26c-0.79,0.23-1.43,0.83-1.9,1.8
		c-0.46,0.98-0.72,2.29-0.72,3.93c0,0.89,0.06,1.64,0.17,2.27c0.12,0.63,0.31,1.12,0.54,1.49c0.48,0.74,1.1,1,1.88,0.78
		c0.37-0.11,0.77-0.35,1.14-0.7c0.4-0.37,0.72-0.76,0.99-1.19c0-0.63,0-1.26,0-1.89C217.3,238.02,216.61,238.22,215.93,238.42
		L215.93,238.42z M221.52,242.31c0-1.24,0-2.48,0-3.72c0-1.24,0-2.48,0-3.72c0-1.24,0-2.48,0-3.72c0-1.24,0-2.48,0-3.72
		c2.23-0.57,4.45-1.13,6.68-1.63c0,0.84,0,1.68,0,2.51c-1.63,0.35-3.23,0.75-4.84,1.17c0,1.11,0,2.21,0,3.31
		c1.49-0.38,3-0.77,4.51-1.1c0,0.84,0,1.68,0,2.52c-1.51,0.33-3.02,0.72-4.51,1.1c0,0.67,0,1.34,0,2.02c0,0.67,0,1.34,0,2.01
		c1.67-0.43,3.33-0.85,5.02-1.2c0,0.84,0,1.68,0,2.52C226.09,241.15,223.81,241.73,221.52,242.31L221.52,242.31z M229.46,235.59
		c0.58-0.22,1.16-0.44,1.76-0.66c0.12,0.96,0.34,1.63,0.66,2.02c0.34,0.42,0.77,0.58,1.32,0.5c0.58-0.08,1.03-0.36,1.32-0.8
		c0.3-0.46,0.45-0.95,0.45-1.5c0-0.35-0.06-0.63-0.19-0.87c-0.12-0.23-0.33-0.42-0.64-0.55c-0.21-0.09-0.68-0.25-1.45-0.45
		c-0.97-0.25-1.65-0.59-2.05-1.1c-0.55-0.7-0.83-1.65-0.83-2.83c0-0.76,0.13-1.51,0.39-2.22c0.26-0.72,0.64-1.31,1.12-1.75
		c0.5-0.45,1.1-0.72,1.78-0.82c1.12-0.16,1.97,0.14,2.54,0.88c0.58,0.75,0.87,1.81,0.91,3.19c-0.62,0.12-1.24,0.25-1.84,0.37
		c-0.08-0.76-0.22-1.28-0.48-1.59c-0.24-0.29-0.64-0.42-1.14-0.35c-0.54,0.08-0.94,0.31-1.24,0.73c-0.19,0.26-0.29,0.6-0.29,0.99
		c0,0.35,0.09,0.64,0.27,0.85c0.23,0.28,0.79,0.53,1.67,0.75c0.89,0.22,1.56,0.49,1.98,0.79c0.42,0.31,0.76,0.77,0.99,1.38
		c0.23,0.62,0.39,1.38,0.39,2.32c0,0.85-0.17,1.67-0.46,2.46c-0.29,0.78-0.7,1.4-1.22,1.83c-0.52,0.44-1.18,0.71-1.96,0.82
		c-1.12,0.16-2.02-0.09-2.63-0.83C229.94,238.42,229.58,237.22,229.46,235.59L229.46,235.59z M206.98,218.12
		c11.38-4.42,22.59-6.9,34.62-3.56v34.89c-4.62-0.99-9.43-1.4-14.13-0.78c-18.39,1.6-39.07,16.22-57.31,22.28
		c-28.13,9.35-52.18,6.31-79.2-6.66c-16.16-7.61-34.05-18.08-52.56-14.86v-34.91c2.57-0.27,5.13-0.55,7.71-0.68
		c6.53,0.02,13.02,1.05,19.31,2.77c26.14,7.35,49.51,23.29,77.39,23.98c14.38,0.17,31.58-6.9,44.11-13.31
		C193.57,224.16,200.12,220.77,206.98,218.12L206.98,218.12z"/>
</g>
</svg>
